<svg xmlns="http://www.w3.org/2000/svg" viewBox="0 0 128 128" role="img" aria-label="Mission Center helper avatar">
  <defs>
    <linearGradient id="bg" x1="18" x2="110" y1="14" y2="114" gradientUnits="userSpaceOnUse">
      <stop stop-color="#FDE68A"/>
      <stop offset="0.52" stop-color="#60A5FA"/>
      <stop offset="1" stop-color="#34D399"/>
    </linearGradient>
    <linearGradient id="coat" x1="36" x2="92" y1="44" y2="118" gradientUnits="userSpaceOnUse">
      <stop stop-color="#FFF7D6"/>
      <stop offset="1" stop-color="#F59E0B"/>
    </linearGradient>
  </defs>
  <rect width="128" height="128" rx="28" fill="url(#bg)"/>
  <circle cx="64" cy="44" r="22" fill="#FFF7ED" stroke="#111827" stroke-width="5"/>
  <path d="M40 78c0-13 11-24 24-24s24 11 24 24v22c0 7-6 12-12 12H52c-6 0-12-5-12-12V78Z" fill="url(#coat)" stroke="#111827" stroke-width="5"/>
  <path d="M51 37c4-7 11-11 18-11 8 0 15 4 19 11" fill="none" stroke="#111827" stroke-width="5" stroke-linecap="round"/>
  <circle cx="56" cy="44" r="3.5" fill="#111827"/>
  <circle cx="72" cy="44" r="3.5" fill="#111827"/>
  <path d="M57 54c4 3 10 3 14 0" fill="none" stroke="#111827" stroke-width="4" stroke-linecap="round"/>
  <path d="M28 96c10 0 16-6 20-14l6 10-16 18c-5 0-10-5-10-14Z" fill="#F59E0B" stroke="#111827" stroke-width="5" stroke-linejoin="round"/>
  <path d="M100 96c-10 0-16-6-20-14l-6 10 16 18c5 0 10-5 10-14Z" fill="#F59E0B" stroke="#111827" stroke-width="5" stroke-linejoin="round"/>
  <path d="M52 88h24" stroke="#111827" stroke-width="5" stroke-linecap="round"/>
</svg>
